# xmcd
#
# Track frame offsets: 
#        150
#        26143
#        46844
#        65115
#        84984
#        110027
#        129290
#        145488
#        164539
#        186217
#        209191
#        227856
#        246755
#        267072
#        288814
#
# Disc length: 4228 seconds
#
# Revision: 0
# Processed by: cddbd v1.5.2PL0 Copyright (c) Steve Scherf et al.
# Submitted via: ExactAudioCopyFreeDBPlugin 1.0
#
DISCID=e310820f
DTITLE=群星 - DTS 一人一首主打歌 发烧至尊
DYEAR=2012
DGENRE=Acid
TTITLE0=陈瑞 - 离别的车站
TTITLE1=江智民 - 离别的秋天
TTITLE2=黄爱玲 - 花心
TTITLE3=钟明秋 - 山嵖树
TTITLE4=雷婷 - 想和你去吹吹风
TTITLE5=乔维怡 - SCARBOROUGH FAIR
TTITLE6=彭清 - 伤不起的爱情伤不起的你
TTITLE7=肖超 - 我是不是你最疼爱的人
TTITLE8=孙露 - 猜心
TTITLE9=侃侃 - 滴答
TTITLE10=周虹 - 红茶馆
TTITLE11=闫旭 - 爱情这杯酒谁喝都得醉
TTITLE12=樊桐舟 - 朋友别哭
TTITLE13=江智民 周虹 - 选择
TTITLE14=茵茵 - 爱江山更爱美人
EXTD=
EXTT0=
EXTT1=
EXTT2=
EXTT3=
EXTT4=
EXTT5=
EXTT6=
EXTT7=
EXTT8=
EXTT9=
EXTT10=
EXTT11=
EXTT12=
EXTT13=
EXTT14=
PLAYORDER=
